HIERARCHY
ROOT Hips
{
	OFFSET 0.000000 71.427986 0.000000
	CHANNELS 6 Xposition Yposition Zposition Xrotation Yrotation Zrotation
	JOINT Pelvis
	{
		OFFSET 0.000000 0.000000 0.000000
		CHANNELS 3 Xrotation Yrotation Zrotation
		JOINT LeftUpLeg
		{
			OFFSET 6.797100 -2.508499 -1.318700
			CHANNELS 3 Xrotation Yrotation Zrotation
			JOINT LeftLeg
			{
				OFFSET 0.069008 -29.241863 0.690200
				CHANNELS 3 Xrotation Yrotation Zrotation
				JOINT LeftFoot
				{
					OFFSET -0.069008 -29.568123 -0.266800
					CHANNELS 3 Xrotation Yrotation Zrotation
					JOINT LeftToeBase
					{
						OFFSET 3.145500 -8.631000 16.059900
						CHANNELS 3 Xrotation Yrotation Zrotation
						End Site
						{
							OFFSET 0.000000 18.501587 0.000000
						}
					}
				}
			}
			JOINT Left_ShortSleeve
			{
				OFFSET 0.265923 -10.480953 1.153800
				CHANNELS 3 Xrotation Yrotation Zrotation
				End Site
				{
					OFFSET 1.725763 19.823879 0.000000
				}
			}
		}
		JOINT RightUpLeg
		{
			OFFSET -6.797100 -2.508499 -1.318700
			CHANNELS 3 Xrotation Yrotation Zrotation
			JOINT RightLeg
			{
				OFFSET -0.082453 -29.241932 0.688000
				CHANNELS 3 Xrotation Yrotation Zrotation
				JOINT RightFoot
				{
					OFFSET 0.082453 -29.568058 -0.264600
					CHANNELS 3 Xrotation Yrotation Zrotation
					JOINT RightToeBase
					{
						OFFSET -3.115300 -8.682800 16.113400
						CHANNELS 3 Xrotation Yrotation Zrotation
						End Site
						{
							OFFSET 0.000000 18.567114 0.000000
						}
					}
				}
			}
			JOINT Right_ShortSleeve
			{
				OFFSET -0.265923 -10.480953 1.153800
				CHANNELS 3 Xrotation Yrotation Zrotation
				End Site
				{
					OFFSET -1.725766 19.823910 0.000000
				}
			}
		}
	}
	JOINT Spine
	{
		OFFSET 0.000000 13.368103 0.470500
		CHANNELS 3 Xrotation Yrotation Zrotation
		JOINT Spine1
		{
			OFFSET 0.147000 13.837402 0.538800
			CHANNELS 3 Xrotation Yrotation Zrotation
			JOINT Spine2
			{
				OFFSET 0.168000 16.242897 -1.435500
				CHANNELS 3 Xrotation Yrotation Zrotation
				JOINT Neck
				{
					OFFSET 0.217200 18.631500 -1.679100
					CHANNELS 3 Xrotation Yrotation Zrotation
					JOINT Head
					{
						OFFSET 0.000000 6.599396 1.385900
						CHANNELS 3 Xrotation Yrotation Zrotation
						JOINT Hat
						{
							OFFSET -0.532200 27.220596 -10.096100
							CHANNELS 3 Xrotation Yrotation Zrotation
							End Site
							{
								OFFSET 0.000000 22.029861 0.000000
							}
						}
						JOINT HairD
						{
							OFFSET -10.777400 17.437393 -1.325900
							CHANNELS 3 Xrotation Yrotation Zrotation
							JOINT HairD1
							{
								OFFSET -3.290299 -11.051193 1.062200
								CHANNELS 3 Xrotation Yrotation Zrotation
								End Site
								{
									OFFSET 0.000000 11.579437 0.000000
								}
							}
						}
						JOINT HairB
						{
							OFFSET -10.777400 17.437393 1.467900
							CHANNELS 3 Xrotation Yrotation Zrotation
							JOINT HairB1
							{
								OFFSET -1.561200 -12.956299 3.590200
								CHANNELS 3 Xrotation Yrotation Zrotation
								End Site
								{
									OFFSET 0.000000 13.534866 0.000000
								}
							}
						}
						JOINT HairA
						{
							OFFSET 9.713100 17.437393 1.467900
							CHANNELS 3 Xrotation Yrotation Zrotation
							JOINT HairA1
							{
								OFFSET 1.561200 -12.956299 3.590200
								CHANNELS 3 Xrotation Yrotation Zrotation
								End Site
								{
									OFFSET 0.000000 13.534866 0.000000
								}
							}
						}
						JOINT HairC
						{
							OFFSET 9.713100 17.437393 -1.325900
							CHANNELS 3 Xrotation Yrotation Zrotation
							JOINT HairC1
							{
								OFFSET 3.290300 -11.051193 1.062200
								CHANNELS 3 Xrotation Yrotation Zrotation
								End Site
								{
									OFFSET 0.000000 11.579437 0.000000
								}
							}
						}
					}
				}
				JOINT LeftShoulder
				{
					OFFSET 5.101800 15.108002 -2.763700
					CHANNELS 3 Xrotation Yrotation Zrotation
					JOINT LeftArm
					{
						OFFSET 9.825497 2.506317 -1.597400
						CHANNELS 3 Xrotation Yrotation Zrotation
						JOINT LeftForeArm
						{
							OFFSET 21.966244 0.000000 0.000000
							CHANNELS 3 Xrotation Yrotation Zrotation
							JOINT LeftHand
							{
								OFFSET 33.879036 0.000000 0.000000
								CHANNELS 3 Xrotation Yrotation Zrotation
								JOINT LeftHandThumb1
								{
									OFFSET 6.715286 -2.359680 3.363841
									CHANNELS 3 Xrotation Yrotation Zrotation
									JOINT LeftHandThumb2
									{
										OFFSET 2.507072 -1.447464 1.447461
										CHANNELS 3 Xrotation Yrotation Zrotation
										JOINT LeftHandThumb3
										{
											OFFSET 2.898338 -1.673355 1.673357
											CHANNELS 3 Xrotation Yrotation Zrotation
											End Site
											{
												OFFSET -0.295959 3.727692 -0.131651
											}
										}
									}
								}
								JOINT LeftHandIndex1
								{
									OFFSET 14.190811 -0.254547 3.840278
									CHANNELS 3 Xrotation Yrotation Zrotation
									JOINT LeftHandIndex2
									{
										OFFSET 3.551727 0.000000 -0.000000
										CHANNELS 3 Xrotation Yrotation Zrotation
										JOINT LeftHandIndex3
										{
											OFFSET 2.894196 0.000000 0.000000
											CHANNELS 3 Xrotation Yrotation Zrotation
											End Site
											{
												OFFSET -1.000603 2.690872 0.366626
											}
										}
									}
								}
								JOINT LeftHandMiddle1
								{
									OFFSET 13.776489 0.000000 0.000000
									CHANNELS 3 Xrotation Yrotation Zrotation
									JOINT LeftHandMiddle2
									{
										OFFSET 3.438232 0.000000 0.000000
										CHANNELS 3 Xrotation Yrotation Zrotation
										JOINT LeftHandMiddle3
										{
											OFFSET 3.691551 0.000000 0.000000
											CHANNELS 3 Xrotation Yrotation Zrotation
											End Site
											{
												OFFSET -1.082298 3.499527 0.457670
											}
										}
									}
								}
								JOINT LeftHandRing1
								{
									OFFSET 13.966164 -0.268127 -3.067488
									CHANNELS 3 Xrotation Yrotation Zrotation
									JOINT LeftHandRing2
									{
										OFFSET 3.162567 0.000000 0.000000
										CHANNELS 3 Xrotation Yrotation Zrotation
										JOINT LeftHandRing3
										{
											OFFSET 3.324348 0.000000 0.000000
											CHANNELS 3 Xrotation Yrotation Zrotation
											End Site
											{
												OFFSET -0.861900 3.184998 0.405154
											}
										}
									}
								}
								JOINT LeftHandPinky1
								{
									OFFSET 13.131393 -0.168503 -5.746925
									CHANNELS 3 Xrotation Yrotation Zrotation
									JOINT LeftHandPinky2
									{
										OFFSET 2.849182 0.000000 0.000000
										CHANNELS 3 Xrotation Yrotation Zrotation
										JOINT LeftHandPinky3
										{
											OFFSET 2.805038 0.000000 0.000000
											CHANNELS 3 Xrotation Yrotation Zrotation
											End Site
											{
												OFFSET -0.882500 2.642609 0.325652
											}
										}
									}
								}
							}
							JOINT Left_Sleeve
							{
								OFFSET 6.592125 -0.646545 0.805568
								CHANNELS 3 Xrotation Yrotation Zrotation
								End Site
								{
									OFFSET -0.000179 20.275787 -0.000000
								}
							}
						}
					}
				}
				JOINT RightShoulder
				{
					OFFSET -5.731700 15.108002 -2.763700
					CHANNELS 3 Xrotation Yrotation Zrotation
					JOINT RightArm
					{
						OFFSET -9.825497 2.506317 -1.597400
						CHANNELS 3 Xrotation Yrotation Zrotation
						JOINT RightForeArm
						{
							OFFSET -21.966242 0.000000 0.000000
							CHANNELS 3 Xrotation Yrotation Zrotation
							JOINT RightHand
							{
								OFFSET -33.879032 0.000000 0.000000
								CHANNELS 3 Xrotation Yrotation Zrotation
								JOINT RightHandThumb1
								{
									OFFSET -6.715286 -2.359680 3.363841
									CHANNELS 3 Xrotation Yrotation Zrotation
									JOINT RightHandThumb2
									{
										OFFSET -2.507072 -1.447464 1.447461
										CHANNELS 3 Xrotation Yrotation Zrotation
										JOINT RightHandThumb3
										{
											OFFSET -2.898338 -1.673355 1.673357
											CHANNELS 3 Xrotation Yrotation Zrotation
											End Site
											{
												OFFSET 0.295959 3.727692 -0.131651
											}
										}
									}
								}
								JOINT RightHandIndex1
								{
									OFFSET -14.190811 -0.254547 3.840278
									CHANNELS 3 Xrotation Yrotation Zrotation
									JOINT RightHandIndex2
									{
										OFFSET -3.551727 0.000000 -0.000000
										CHANNELS 3 Xrotation Yrotation Zrotation
										JOINT RightHandIndex3
										{
											OFFSET -2.894196 0.000000 0.000000
											CHANNELS 3 Xrotation Yrotation Zrotation
											End Site
											{
												OFFSET 1.000603 2.690872 0.366626
											}
										}
									}
								}
								JOINT RightHandMiddle1
								{
									OFFSET -13.776489 0.000000 0.000000
									CHANNELS 3 Xrotation Yrotation Zrotation
									JOINT RightHandMiddle2
									{
										OFFSET -3.438232 0.000000 0.000000
										CHANNELS 3 Xrotation Yrotation Zrotation
										JOINT RightHandMiddle3
										{
											OFFSET -3.691551 0.000000 0.000000
											CHANNELS 3 Xrotation Yrotation Zrotation
											End Site
											{
												OFFSET 1.082298 3.499527 0.457670
											}
										}
									}
								}
								JOINT RightHandRing1
								{
									OFFSET -13.966164 -0.268127 -3.067488
									CHANNELS 3 Xrotation Yrotation Zrotation
									JOINT RightHandRing2
									{
										OFFSET -3.162567 0.000000 0.000000
										CHANNELS 3 Xrotation Yrotation Zrotation
										JOINT RightHandRing3
										{
											OFFSET -3.324348 0.000000 0.000000
											CHANNELS 3 Xrotation Yrotation Zrotation
											End Site
											{
												OFFSET 0.861900 3.184998 0.405154
											}
										}
									}
								}
								JOINT RightHandPinky1
								{
									OFFSET -13.131393 -0.168503 -5.746925
									CHANNELS 3 Xrotation Yrotation Zrotation
									JOINT RightHandPinky2
									{
										OFFSET -2.849182 0.000000 0.000000
										CHANNELS 3 Xrotation Yrotation Zrotation
										JOINT RightHandPinky3
										{
											OFFSET -2.805038 0.000000 0.000000
											CHANNELS 3 Xrotation Yrotation Zrotation
											End Site
											{
												OFFSET 0.882500 2.642609 0.325652
											}
										}
									}
								}
							}
							JOINT Right_Sleeve
							{
								OFFSET -6.592125 -0.646545 0.805568
								CHANNELS 3 Xrotation Yrotation Zrotation
								End Site
								{
									OFFSET 0.000179 20.275787 -0.000000
								}
							}
						}
					}
				}
				JOINT Bind_Right_JacketString
				{
					OFFSET -3.534800 11.969597 7.200700
					CHANNELS 3 Xrotation Yrotation Zrotation
					JOINT Bind_Right_JacketString1
					{
						OFFSET -0.319900 -6.102600 2.794100
						CHANNELS 3 Xrotation Yrotation Zrotation
						End Site
						{
							OFFSET 0.000000 6.719452 0.000000
						}
					}
				}
				JOINT Bind_Left_JacketString
				{
					OFFSET 2.904800 11.969597 7.200700
					CHANNELS 3 Xrotation Yrotation Zrotation
					JOINT Bind_Left_JacketString1
					{
						OFFSET 0.364800 -5.904503 3.186800
						CHANNELS 3 Xrotation Yrotation Zrotation
						End Site
						{
							OFFSET 0.000000 6.719513 0.000000
						}
					}
				}
				JOINT HairE
				{
					OFFSET 5.915200 17.612701 -11.592200
					CHANNELS 3 Xrotation Yrotation Zrotation
					JOINT HairE1
					{
						OFFSET 0.289200 -7.171898 -1.284500
						CHANNELS 3 Xrotation Yrotation Zrotation
						End Site
						{
							OFFSET 0.000000 7.291756 0.000000
						}
					}
				}
				JOINT HairF
				{
					OFFSET -0.864800 17.612701 -11.592200
					CHANNELS 3 Xrotation Yrotation Zrotation
					JOINT HairF1
					{
						OFFSET 0.000000 -14.087097 -2.127501
						CHANNELS 3 Xrotation Yrotation Zrotation
						End Site
						{
							OFFSET 0.000000 14.246841 0.000000
						}
					}
				}
				JOINT HairG
				{
					OFFSET -8.087700 17.612701 -11.592200
					CHANNELS 3 Xrotation Yrotation Zrotation
					JOINT HairG1
					{
						OFFSET -0.293600 -6.081398 -0.910100
						CHANNELS 3 Xrotation Yrotation Zrotation
						End Site
						{
							OFFSET 0.000000 6.156120 0.000000
						}
					}
				}
			}
		}
	}
	JOINT Pouch
	{
		OFFSET 0.000000 4.394501 10.847300
		CHANNELS 3 Xrotation Yrotation Zrotation
		End Site
		{
			OFFSET 0.000000 21.880577 0.000000
		}
	}
	JOINT Bag
	{
		OFFSET -13.229000 4.813004 -0.593300
		CHANNELS 3 Xrotation Yrotation Zrotation
		End Site
		{
			OFFSET 0.000000 21.880577 0.000000
		}
	}
	JOINT OccupyGuyFacialAnim_Joint
	{
		OFFSET 1.000000 -70.206398 -1.655000
		CHANNELS 3 Xrotation Yrotation Zrotation
		End Site
		{
			OFFSET 0.000000 21.880577 0.000000
		}
	}
}
MOTION
Frames: 4
Frame Time: 0.033333
61.397469 54.994797 -25.257185 162.339431 21.422793 -187.173657 -0.000002 -0.000000 -0.000002 -52.016159 6.459509 2.316240 104.336788 2.617031 -0.870545 11.018675 -0.167645 -8.080223 -0.000000 -0.000001 0.000000 -0.000000 0.000000 0.000001 -61.312341 3.078982 3.855276 76.351782 10.270946 -1.127775 -33.452757 -3.554400 7.840512 0.000000 0.000001 -0.000000 -0.000002 0.000001 -0.000000 3.555607 -2.188228 2.354039 7.076540 -4.796241 2.534789 7.076539 -4.796240 2.534792 8.518239 19.257076 -15.985132 -30.841661 10.784198 19.254935 0.000001 -0.000000 -0.000000 0.000001 -0.000000 -0.000000 0.000001 -0.000000 0.000000 0.000001 -0.000000 -0.000000 0.000001 -0.000000 0.000001 0.000001 -0.000000 -0.000000 0.000001 -0.000000 0.000001 0.000001 -0.000000 -0.000000 0.000001 -0.000000 -0.000000 -11.087907 -27.543643 4.512366 -53.827433 2.186926 -34.545017 -69.491936 -50.043601 -65.971165 -92.167167 16.946640 -4.902402 20.311297 0.100461 -0.005052 5.042232 5.797838 4.091834 0.000001 0.000005 -0.000001 3.046734 -0.835778 -36.468070 -10.157879 -6.218417 -75.971907 0.000000 0.000002 -0.000002 -1.121218 -4.590399 -49.699639 -7.058431 -5.571652 -67.388163 0.000000 0.000000 -0.000001 -1.999387 6.854612 -60.204545 0.619609 -3.733196 -64.726595 -0.000002 0.000000 0.000001 -0.584241 8.643014 -68.302021 4.477267 -7.164422 -64.479943 -0.000001 -0.000000 0.000003 -0.000002 0.000001 0.000001 2.969895 24.623078 -3.973630 -48.132384 22.485189 47.749525 52.068994 130.095911 -30.842071 -49.186842 -15.775212 -42.547820 -1.800649 -10.600344 -3.084897 0.588560 -7.035263 -12.507021 -0.000000 0.000003 -0.000000 4.921584 5.179408 12.960407 -1.435505 -0.760347 28.107811 -0.000002 -0.000000 -0.000002 -5.311505 5.881099 74.553673 -11.302885 -2.451949 117.077324 0.000002 0.000003 -0.000000 -4.457902 -8.510872 85.909580 -4.154608 9.889095 108.559293 0.000002 -0.000000 0.000003 -3.708819 -11.567362 90.479598 -2.674292 17.804719 109.354088 -0.000000 -0.000000 0.000000 -0.000001 0.000003 0.000003 0.000001 0.000000 0.000002 0.000003 0.000000 0.000001 0.000001 0.000000 0.000001 0.000001 0.000000 0.000001 0.000001 0.000000 0.000002 0.000003 0.000000 0.000001 0.000001 0.000000 0.000001 0.000001 0.000000 0.000001 0.000001 0.000000 0.000002 0.000003 0.000000 0.000001 -0.000002 -0.000000 -0.000002 -0.000002 -0.000000 -0.000002 -0.000002 -0.000000 -0.000002 
62.835491 55.531036 -29.837538 162.718124 22.084650 -186.306810 -0.000000 0.000000 -0.000001 -60.137767 8.958020 1.718975 105.624129 1.151534 -1.466472 6.040079 -0.027175 -12.877200 -0.000000 -0.000000 0.000000 -0.000000 -0.000001 0.000002 -55.204218 2.845719 3.244924 76.608454 11.399708 -1.668237 -38.467041 -3.272794 5.697614 0.000000 0.000000 -0.000000 -0.000001 0.000000 -0.000000 3.804216 -1.772836 1.948828 7.564588 -4.130125 1.688819 7.564590 -4.130120 1.688821 8.673297 18.863876 -15.421952 -31.803266 9.756211 18.373108 -0.000001 0.000000 -0.000001 -0.000001 0.000000 -0.000001 -0.000001 0.000000 -0.000001 -0.000001 0.000000 -0.000001 -0.000001 0.000000 -0.000000 -0.000001 0.000000 -0.000001 -0.000001 0.000000 -0.000000 -0.000001 0.000000 -0.000001 -0.000001 0.000000 -0.000001 -11.532347 -27.994372 5.565187 -54.519383 1.291698 -35.056277 -67.414930 -50.091709 -64.079940 -92.823876 17.017409 -4.002440 19.238963 0.656445 0.299969 5.056121 6.053316 4.006781 0.000002 0.000001 0.000003 3.152618 -0.666557 -36.746968 -10.546962 -6.332090 -77.115841 0.000000 0.000002 -0.000002 -1.310774 -4.550635 -51.061869 -7.168703 -5.647133 -67.667340 0.000001 0.000002 -0.000001 -2.063572 6.735520 -61.805467 0.691743 -3.725463 -65.139883 0.000000 0.000000 -0.000005 -0.840575 8.134530 -69.962857 4.670604 -7.233721 -65.219325 -0.000001 -0.000001 0.000003 0.000000 0.000000 -0.000003 3.813555 25.460896 -5.090203 -48.243754 21.510441 47.584661 48.169441 130.853324 -28.045399 -49.372313 -16.245767 -46.340443 -1.044601 -10.573534 -2.639312 1.125832 -6.563341 -12.924215 0.000001 0.000000 -0.000000 4.670139 5.044194 12.986976 -1.512676 -0.755157 28.691053 0.000000 0.000001 -0.000003 -5.027857 5.998395 73.811730 -11.383951 -2.556093 117.368181 0.000001 -0.000001 0.000003 -4.660787 -8.364174 85.092785 -4.130674 9.973294 108.684654 0.000003 -0.000003 -0.000001 -3.930188 -10.903822 90.029755 -2.532594 17.983268 108.962001 -0.000002 0.000000 0.000001 0.000002 0.000003 0.000002 -0.000001 0.000002 0.000000 -0.000001 0.000001 -0.000000 -0.000001 0.000002 -0.000000 -0.000001 0.000002 -0.000000 -0.000001 0.000002 0.000000 -0.000001 0.000001 -0.000000 -0.000001 0.000002 -0.000000 -0.000001 0.000002 -0.000000 -0.000001 0.000002 0.000000 -0.000001 0.000001 -0.000000 -0.000000 0.000000 -0.000001 -0.000000 0.000000 -0.000001 -0.000000 0.000000 -0.000001 
64.122040 56.305923 -34.570694 163.011713 22.686426 -185.035603 0.000001 -0.000001 0.000000 -69.422767 10.678957 1.246682 105.427603 5.827242 -2.018501 -6.485499 0.510679 -3.868386 0.000001 -0.000001 0.000001 -0.000003 -0.000001 0.000000 -48.086745 2.368489 1.540164 74.876693 12.793387 -2.308160 -42.426891 -2.683311 3.611737 -0.000000 0.000000 0.000000 -0.000001 0.000000 -0.000000 4.007310 -1.358666 1.380506 7.972740 -3.465285 0.768918 7.972740 -3.465285 0.768913 8.768082 18.443859 -14.827337 -32.610291 8.574244 17.631831 -0.000002 0.000000 0.000000 -0.000002 0.000000 0.000000 -0.000002 0.000000 0.000001 -0.000002 0.000000 -0.000000 -0.000002 -0.000000 -0.000000 -0.000002 0.000000 -0.000000 -0.000002 -0.000000 -0.000000 -0.000002 0.000000 0.000000 -0.000002 0.000000 0.000000 -11.994002 -28.431313 6.435767 -55.100519 0.470423 -35.487658 -65.316177 -50.122114 -62.280909 -93.564385 17.025309 -2.962133 18.160088 1.191944 0.612125 5.069972 6.307877 3.922455 -0.000001 0.000001 -0.000001 3.259758 -0.499097 -37.024598 -10.940001 -6.433293 -78.254324 0.000000 0.000001 0.000002 -1.495028 -4.505755 -52.417413 -7.279161 -5.721370 -67.945349 0.000002 0.000001 -0.000001 -2.132548 6.619270 -63.398273 0.763848 -3.718949 -65.551224 0.000000 0.000000 -0.000003 -1.122953 7.638982 -71.611535 4.862272 -7.307975 -65.955046 -0.000001 0.000000 -0.000002 0.000000 -0.000001 -0.000002 4.574953 25.986901 -6.117646 -48.521923 20.782324 47.569942 44.809716 131.544252 -25.757297 -49.684022 -16.525853 -49.943982 -0.295369 -10.536676 -2.193538 1.661591 -6.100452 -13.347122 -0.000001 0.000000 -0.000000 4.419956 4.909485 13.012458 -1.589123 -0.751348 29.271609 0.000000 0.000001 -0.000001 -4.742547 6.109157 73.073066 -11.463728 -2.660591 117.657508 -0.000001 0.000001 0.000003 -4.858556 -8.212615 84.280566 -4.107210 10.057253 108.809524 0.000001 -0.000003 -0.000001 -4.140000 -10.240210 89.584044 -2.388858 18.159694 108.571157 0.000002 0.000003 0.000001 -0.000000 0.000002 0.000002 -0.000000 -0.000001 0.000001 -0.000002 0.000001 0.000001 -0.000000 -0.000001 0.000000 -0.000000 -0.000001 0.000000 -0.000000 -0.000001 0.000001 -0.000002 0.000001 0.000001 -0.000000 -0.000001 0.000000 -0.000000 -0.000001 0.000000 -0.000000 -0.000001 0.000001 -0.000002 0.000001 0.000001 0.000001 -0.000001 0.000000 0.000001 -0.000001 0.000000 0.000001 -0.000001 0.000000 
65.146736 57.369316 -39.505596 163.177003 22.935437 -183.143313 -0.000001 0.000001 -0.000001 -76.881586 7.934089 3.130632 97.408709 8.324943 -2.969354 -8.812635 0.236845 -1.926391 -0.000001 -0.000000 -0.000000 0.000004 -0.000002 -0.000003 -39.984392 2.068810 -1.528413 70.626103 14.639604 -2.996668 -44.741588 -2.365694 2.775570 0.000000 0.000000 0.000000 -0.000004 -0.000001 -0.000001 4.116916 -1.046137 0.597744 8.200654 -2.824765 -0.236647 8.200660 -2.824766 -0.236647 8.715151 17.973933 -14.257697 -33.040907 7.059528 17.274932 0.000000 -0.000000 -0.000000 0.000000 -0.000000 -0.000000 0.000000 -0.000000 0.000000 0.000000 -0.000000 -0.000001 0.000000 0.000000 -0.000000 0.000000 -0.000000 -0.000001 0.000000 0.000000 -0.000000 0.000000 -0.000000 -0.000000 0.000000 -0.000000 -0.000000 -12.514799 -28.748290 6.892535 -55.465726 -0.328094 -35.774598 -63.110839 -50.140846 -60.629656 -94.467001 16.957321 -1.690237 17.077551 1.705626 0.930082 5.083787 6.560751 3.838997 -0.000002 -0.000004 0.000001 3.367799 -0.333844 -37.300377 -11.335612 -6.521795 -79.384447 -0.000000 -0.000001 0.000001 -1.673495 -4.456219 -53.762980 -7.389612 -5.794143 -68.221487 0.000002 0.000003 0.000003 -2.206031 6.506266 -64.979169 0.835744 -3.713650 -65.959588 -0.000000 0.000003 0.000002 -1.429701 7.158485 -73.244524 5.051707 -7.386967 -66.685282 0.000001 0.000000 0.000003 -0.000001 0.000002 0.000002 5.136745 25.990917 -6.934174 -48.997889 20.453792 47.762184 42.263609 132.159912 -24.122114 -50.119614 -16.632870 -53.287503 0.445156 -10.490027 -1.748894 2.194644 -5.647729 -13.774494 -0.000001 -0.000003 0.000000 4.171711 4.775633 13.036811 -1.664788 -0.748902 29.848015 -0.000001 -0.000002 0.000002 -4.456424 6.213151 72.339517 -11.542068 -2.765261 117.944622 -0.000000 -0.000001 -0.000001 -5.050732 -8.056775 83.474945 -4.084298 10.140663 108.933567 0.000003 -0.000001 -0.000000 -4.337978 -9.578242 89.143422 -2.243648 18.333437 108.182526 -0.000001 0.000003 -0.000001 0.000002 0.000001 -0.000001 0.000002 0.000003 -0.000000 0.000002 0.000000 -0.000002 0.000002 0.000003 -0.000001 0.000002 0.000003 -0.000001 0.000002 0.000003 -0.000000 0.000002 0.000000 -0.000002 0.000002 0.000003 -0.000001 0.000002 0.000003 -0.000001 0.000002 0.000003 -0.000000 0.000002 0.000000 -0.000002 -0.000001 0.000001 -0.000001 -0.000001 0.000001 -0.000001 -0.000001 0.000001 -0.000001 
